<svg width="1098" height="290" viewBox="0 0 1098 290" fill="none" xmlns="http://www.w3.org/2000/svg">
<path d="M67.4134 35.53C68.5534 35.53 69.3834 35.91 69.9034 36.67C70.4434 37.41 70.7134 38.59 70.7134 40.21V52H66.6634V40.75C66.6634 40.17 66.6034 39.77 66.4834 39.55C66.3834 39.33 66.1834 39.22 65.8834 39.22C65.3234 39.22 64.7734 39.57 64.2334 40.27V52H60.8734V40.75C60.8734 40.17 60.8134 39.77 60.6934 39.55C60.5934 39.33 60.3934 39.22 60.0934 39.22C59.5334 39.22 58.9834 39.57 58.4434 40.27V52H54.3334V36.07H57.7834L58.1134 37.6C58.6334 36.88 59.1434 36.36 59.6434 36.04C60.1634 35.7 60.7634 35.53 61.4434 35.53C62.0634 35.53 62.5834 35.69 63.0034 36.01C63.4234 36.31 63.7234 36.78 63.9034 37.42C64.9834 36.16 66.1534 35.53 67.4134 35.53ZM87.0217 47.41C87.0217 47.99 87.1017 48.42 87.2617 48.7C87.4217 48.98 87.6917 49.19 88.0717 49.33L87.0817 52.45C86.1217 52.35 85.3217 52.14 84.6817 51.82C84.0417 51.48 83.5417 50.99 83.1817 50.35C82.5817 51.05 81.8217 51.59 80.9017 51.97C79.9817 52.33 79.0017 52.51 77.9617 52.51C76.3217 52.51 75.0117 52.05 74.0317 51.13C73.0517 50.19 72.5617 48.98 72.5617 47.5C72.5617 45.78 73.2417 44.45 74.6017 43.51C75.9617 42.55 77.8717 42.07 80.3317 42.07H82.4617V41.5C82.4617 39.86 81.4117 39.04 79.3117 39.04C78.7717 39.04 78.0917 39.12 77.2717 39.28C76.4717 39.42 75.6917 39.62 74.9317 39.88L73.8517 36.73C74.8717 36.35 75.9317 36.06 77.0317 35.86C78.1517 35.64 79.1617 35.53 80.0617 35.53C84.7017 35.53 87.0217 37.41 87.0217 41.17V47.41ZM79.5817 49.12C80.1217 49.12 80.6617 48.97 81.2017 48.67C81.7617 48.35 82.1817 47.92 82.4617 47.38V44.77H81.2917C78.7317 44.77 77.4517 45.57 77.4517 47.17C77.4517 47.79 77.6317 48.27 77.9917 48.61C78.3717 48.95 78.9017 49.12 79.5817 49.12ZM98.47 27.73C99.29 27.73 99.96 27.99 100.48 28.51C101 29.01 101.26 29.64 101.26 30.4C101.26 31.18 101 31.82 100.48 32.32C99.96 32.82 99.29 33.07 98.47 33.07C97.65 33.07 96.97 32.82 96.43 32.32C95.91 31.8 95.65 31.16 95.65 30.4C95.65 29.64 95.91 29.01 96.43 28.51C96.97 27.99 97.65 27.73 98.47 27.73ZM101.32 48.76H105.4V52H92.08V48.76H96.58V39.31H92.23V36.07H101.32V48.76ZM109.588 36.07H113.728L114.058 37.9C114.778 37.1 115.528 36.51 116.308 36.13C117.108 35.73 118.008 35.53 119.008 35.53C120.388 35.53 121.458 35.95 122.218 36.79C122.998 37.63 123.388 38.8 123.388 40.3V52H118.648V41.68C118.648 40.68 118.538 39.99 118.318 39.61C118.098 39.23 117.698 39.04 117.118 39.04C116.638 39.04 116.168 39.2 115.708 39.52C115.268 39.82 114.808 40.27 114.328 40.87V52H109.588V36.07Z" fill="black"/>
<line x1="145" y1="42" x2="1098" y2="42" stroke="#C4C4C4" stroke-width="6"/>
<circle cx="189" cy="41" r="13" fill="#C4C4C4"/>
<circle cx="462" cy="41" r="13" fill="#C4C4C4"/>
<path d="M78.4176 168.74V191H74.2176L73.9776 189.26C73.4976 189.94 72.8876 190.49 72.1476 190.91C71.4076 191.31 70.5476 191.51 69.5676 191.51C67.6476 191.51 66.1876 190.75 65.1876 189.23C64.2076 187.71 63.7176 185.63 63.7176 182.99C63.7176 181.35 63.9776 179.89 64.4976 178.61C65.0176 177.33 65.7576 176.33 66.7176 175.61C67.6776 174.89 68.7976 174.53 70.0776 174.53C71.5176 174.53 72.7176 175.03 73.6776 176.03V168.23L78.4176 168.74ZM71.3376 178.01C70.4776 178.01 69.8076 178.42 69.3276 179.24C68.8476 180.04 68.6076 181.3 68.6076 183.02C68.6076 184.86 68.8176 186.16 69.2376 186.92C69.6776 187.66 70.2876 188.03 71.0676 188.03C72.0676 188.03 72.9376 187.42 73.6776 186.2V179.33C73.3376 178.89 72.9776 178.56 72.5976 178.34C72.2376 178.12 71.8176 178.01 71.3376 178.01ZM86.7159 184.43C87.0159 186.85 88.2959 188.06 90.5559 188.06C91.9159 188.06 93.2759 187.62 94.6359 186.74L96.5259 189.32C95.7459 190 94.8159 190.54 93.7359 190.94C92.6559 191.32 91.4659 191.51 90.1659 191.51C88.3859 191.51 86.8759 191.16 85.6359 190.46C84.3959 189.74 83.4559 188.75 82.8159 187.49C82.1959 186.21 81.8859 184.73 81.8859 183.05C81.8859 181.45 82.1859 180.01 82.7859 178.73C83.4059 177.43 84.2959 176.41 85.4559 175.67C86.6359 174.91 88.0359 174.53 89.6559 174.53C91.1759 174.53 92.4959 174.86 93.6159 175.52C94.7359 176.16 95.5959 177.1 96.1959 178.34C96.8159 179.56 97.1259 181.02 97.1259 182.72C97.1259 183.38 97.0959 183.95 97.0359 184.43H86.7159ZM89.6559 177.71C88.7959 177.71 88.1059 178.03 87.5859 178.67C87.0659 179.29 86.7559 180.25 86.6559 181.55H92.5059C92.4659 178.99 91.5159 177.71 89.6559 177.71ZM110.314 191H104.734L99.3641 175.07H104.494L107.584 187.37L110.824 175.07H115.624L110.314 191Z" fill="black"/>
<line x1="145" y1="181" x2="1098" y2="181" stroke="#C4C4C4" stroke-width="6"/>
<circle cx="234" cy="178" r="13" fill="#C4C4C4"/>
<circle cx="462" cy="178" r="13" fill="#C4C4C4"/>
<circle cx="614" cy="178" r="13" fill="#C4C4C4"/>
<circle cx="690" cy="178" r="13" fill="#C4C4C4"/>
<circle cx="766" cy="178" r="13" fill="#C4C4C4"/>
<circle cx="833" cy="41" r="13" fill="#C4C4C4"/>
<circle cx="538" cy="178" r="13" fill="#C4C4C4"/>
<circle cx="386" cy="178" r="13" fill="#C4C4C4"/>
<circle cx="310" cy="178" r="13" fill="#C4C4C4"/>
<path d="M28.4252 243.53C29.5652 243.53 30.3952 243.91 30.9152 244.67C31.4552 245.41 31.7252 246.59 31.7252 248.21V260H27.6752V248.75C27.6752 248.17 27.6152 247.77 27.4952 247.55C27.3952 247.33 27.1952 247.22 26.8952 247.22C26.3352 247.22 25.7852 247.57 25.2452 248.27V260H21.8852V248.75C21.8852 248.17 21.8252 247.77 21.7052 247.55C21.6052 247.33 21.4052 247.22 21.1052 247.22C20.5452 247.22 19.9952 247.57 19.4552 248.27V260H15.3452V244.07H18.7952L19.1252 245.6C19.6452 244.88 20.1552 244.36 20.6552 244.04C21.1752 243.7 21.7752 243.53 22.4552 243.53C23.0752 243.53 23.5952 243.69 24.0152 244.01C24.4352 244.31 24.7352 244.78 24.9152 245.42C25.9952 244.16 27.1652 243.53 28.4252 243.53ZM41.5234 243.53C43.9434 243.53 45.8334 244.3 47.1934 245.84C48.5734 247.36 49.2634 249.41 49.2634 251.99C49.2634 254.67 48.5834 256.76 47.2234 258.26C45.8634 259.76 43.9634 260.51 41.5234 260.51C39.0834 260.51 37.1834 259.77 35.8234 258.29C34.4634 256.79 33.7834 254.7 33.7834 252.02C33.7834 250.32 34.0834 248.84 34.6834 247.58C35.3034 246.3 36.1934 245.31 37.3534 244.61C38.5334 243.89 39.9234 243.53 41.5234 243.53ZM41.5234 247.04C40.5434 247.04 39.8234 247.44 39.3634 248.24C38.9034 249.02 38.6734 250.28 38.6734 252.02C38.6734 253.78 38.9034 255.06 39.3634 255.86C39.8234 256.64 40.5434 257.03 41.5234 257.03C42.5034 257.03 43.2234 256.63 43.6834 255.83C44.1434 255.03 44.3734 253.75 44.3734 251.99C44.3734 250.27 44.1434 249.02 43.6834 248.24C43.2234 247.44 42.5034 247.04 41.5234 247.04ZM66.4117 237.74V260H62.2117L61.9717 258.26C61.4917 258.94 60.8817 259.49 60.1417 259.91C59.4017 260.31 58.5417 260.51 57.5617 260.51C55.6417 260.51 54.1817 259.75 53.1817 258.23C52.2017 256.71 51.7117 254.63 51.7117 251.99C51.7117 250.35 51.9717 248.89 52.4917 247.61C53.0117 246.33 53.7517 245.33 54.7117 244.61C55.6717 243.89 56.7917 243.53 58.0717 243.53C59.5117 243.53 60.7117 244.03 61.6717 245.03V237.23L66.4117 237.74ZM59.3317 247.01C58.4717 247.01 57.8017 247.42 57.3217 248.24C56.8417 249.04 56.6017 250.3 56.6017 252.02C56.6017 253.86 56.8117 255.16 57.2317 255.92C57.6717 256.66 58.2817 257.03 59.0617 257.03C60.0617 257.03 60.9317 256.42 61.6717 255.2V248.33C61.3317 247.89 60.9717 247.56 60.5917 247.34C60.2317 247.12 59.8117 247.01 59.3317 247.01ZM75.34 254.96C75.34 255.7 75.47 256.23 75.73 256.55C76.01 256.85 76.42 257 76.96 257C77.44 257 77.93 256.85 78.43 256.55C78.93 256.23 79.34 255.8 79.66 255.26V244.07H84.4V260H80.26L80.05 258.14C79.53 258.9 78.83 259.49 77.95 259.91C77.07 260.31 76.14 260.51 75.16 260.51C73.66 260.51 72.52 260.08 71.74 259.22C70.98 258.34 70.6 257.12 70.6 255.56V244.07H75.34V254.96ZM96.8983 254.99C96.8983 256.17 97.5783 256.76 98.9383 256.76C99.6783 256.76 100.438 256.6 101.218 256.28L102.328 259.46C101.048 260.16 99.5183 260.51 97.7383 260.51C95.8783 260.51 94.4783 259.98 93.5383 258.92C92.6183 257.84 92.1583 256.33 92.1583 254.39V240.98H87.4783V237.74H96.8983V254.99ZM110.687 253.43C110.987 255.85 112.267 257.06 114.527 257.06C115.887 257.06 117.247 256.62 118.607 255.74L120.497 258.32C119.717 259 118.787 259.54 117.707 259.94C116.627 260.32 115.437 260.51 114.137 260.51C112.357 260.51 110.847 260.16 109.607 259.46C108.367 258.74 107.427 257.75 106.787 256.49C106.167 255.21 105.857 253.73 105.857 252.05C105.857 250.45 106.157 249.01 106.757 247.73C107.377 246.43 108.267 245.41 109.427 244.67C110.607 243.91 112.007 243.53 113.627 243.53C115.147 243.53 116.467 243.86 117.587 244.52C118.707 245.16 119.567 246.1 120.167 247.34C120.787 248.56 121.097 250.02 121.097 251.72C121.097 252.38 121.067 252.95 121.007 253.43H110.687ZM113.627 246.71C112.767 246.71 112.077 247.03 111.557 247.67C111.037 248.29 110.727 249.25 110.627 250.55H116.477C116.437 247.99 115.487 246.71 113.627 246.71Z" fill="black"/>
<line x1="145" y1="251" x2="1098" y2="251" stroke="#C4C4C4" stroke-width="6"/>
<circle cx="386" cy="252" r="13" fill="#C4C4C4"/>
<circle cx="462" cy="252" r="13" fill="#C4C4C4"/>
<circle cx="538" cy="252" r="13" fill="#C4C4C4"/>
<path d="M21.3752 104.66C22.7152 103.24 24.2752 102.53 26.0552 102.53C27.4552 102.53 28.5352 102.95 29.2952 103.79C30.0552 104.61 30.4352 105.78 30.4352 107.3V119H25.6952V108.62C25.6952 107.66 25.5852 106.99 25.3652 106.61C25.1452 106.23 24.7452 106.04 24.1652 106.04C23.6852 106.04 23.2152 106.21 22.7552 106.55C22.3152 106.87 21.8552 107.35 21.3752 107.99V119H16.6352V96.74L21.3752 96.26V104.66ZM41.5234 102.53C43.9434 102.53 45.8334 103.3 47.1934 104.84C48.5734 106.36 49.2634 108.41 49.2634 110.99C49.2634 113.67 48.5834 115.76 47.2234 117.26C45.8634 118.76 43.9634 119.51 41.5234 119.51C39.0834 119.51 37.1834 118.77 35.8234 117.29C34.4634 115.79 33.7834 113.7 33.7834 111.02C33.7834 109.32 34.0834 107.84 34.6834 106.58C35.3034 105.3 36.1934 104.31 37.3534 103.61C38.5334 102.89 39.9234 102.53 41.5234 102.53ZM41.5234 106.04C40.5434 106.04 39.8234 106.44 39.3634 107.24C38.9034 108.02 38.6734 109.28 38.6734 111.02C38.6734 112.78 38.9034 114.06 39.3634 114.86C39.8234 115.64 40.5434 116.03 41.5234 116.03C42.5034 116.03 43.2234 115.63 43.6834 114.83C44.1434 114.03 44.3734 112.75 44.3734 110.99C44.3734 109.27 44.1434 108.02 43.6834 107.24C43.2234 106.44 42.5034 106.04 41.5234 106.04ZM66.9517 118.07C65.4517 119.03 63.7117 119.51 61.7317 119.51C59.6917 119.51 58.1517 118.99 57.1117 117.95C56.0917 116.91 55.5817 115.45 55.5817 113.57V106.34H52.2517V103.07H55.5817V99.62L60.3217 99.05V103.07H65.4517L64.9717 106.34H60.3217V113.57C60.3217 114.35 60.5017 114.91 60.8617 115.25C61.2217 115.59 61.8017 115.76 62.6017 115.76C63.6017 115.76 64.5317 115.52 65.3917 115.04L66.9517 118.07ZM80.74 96.23C82.78 96.23 84.6 96.57 86.2 97.25L84.88 100.34C83.86 99.94 82.73 99.74 81.49 99.74C80.55 99.74 79.87 99.91 79.45 100.25C79.05 100.59 78.85 101.15 78.85 101.93V104.06H84.04L83.5 107.36H78.85V119H74.14V107.36H70.78V104.06H74.14V101.78C74.14 100.14 74.71 98.81 75.85 97.79C77.01 96.75 78.64 96.23 80.74 96.23ZM95.4583 94.73C96.2783 94.73 96.9483 94.99 97.4683 95.51C97.9883 96.01 98.2483 96.64 98.2483 97.4C98.2483 98.18 97.9883 98.82 97.4683 99.32C96.9483 99.82 96.2783 100.07 95.4583 100.07C94.6383 100.07 93.9583 99.82 93.4183 99.32C92.8983 98.8 92.6383 98.16 92.6383 97.4C92.6383 96.64 92.8983 96.01 93.4183 95.51C93.9583 94.99 94.6383 94.73 95.4583 94.73ZM98.3083 115.76H102.388V119H89.0683V115.76H93.5683V106.31H89.2183V103.07H98.3083V115.76ZM105.137 119L110.597 110.63L105.647 103.07H110.957L113.507 108.17L115.967 103.07H121.007L116.327 110.45L121.817 119H116.447L113.297 113.03L110.267 119H105.137Z" fill="black"/>
<line x1="145" y1="110" x2="1098" y2="110" stroke="#C4C4C4" stroke-width="6"/>
<circle cx="386" cy="108" r="13" fill="#C4C4C4"/>
<path d="M233.354 166.354C234.102 166.711 234.997 166.394 235.354 165.646L241.167 153.462C241.524 152.714 241.207 151.819 240.459 151.462C239.712 151.105 238.816 151.422 238.46 152.17L233.292 163L222.462 157.833C221.714 157.476 220.819 157.793 220.462 158.541C220.105 159.288 220.422 160.184 221.17 160.54L233.354 166.354ZM192.586 52.5005L232.586 165.501L235.414 164.499L195.414 51.4995L192.586 52.5005Z" fill="#818181"/>
<path d="M375.682 102.336C376.42 101.959 376.713 101.055 376.336 100.318L370.194 88.2957C369.817 87.558 368.913 87.2655 368.175 87.6424C367.438 88.0193 367.145 88.9229 367.522 89.6606L372.982 100.347L362.296 105.806C361.558 106.183 361.266 107.087 361.642 107.825C362.019 108.562 362.923 108.855 363.661 108.478L375.682 102.336ZM201.538 46.4271L374.538 102.427L375.462 99.5729L202.462 43.5729L201.538 46.4271Z" fill="#818181"/>
<path d="M372.959 245.499C373.788 245.522 374.477 244.869 374.499 244.041L374.864 230.545C374.887 229.717 374.233 229.028 373.405 229.005C372.577 228.983 371.888 229.636 371.865 230.464L371.541 242.46L359.545 242.136C358.717 242.113 358.028 242.767 358.005 243.595C357.983 244.423 358.636 245.112 359.464 245.135L372.959 245.499ZM317.911 188.032L371.911 245.032L374.089 242.968L320.089 185.968L317.911 188.032Z" fill="#818181"/>
<path d="M453.493 54.1436C453.572 53.3189 452.968 52.5862 452.144 52.5069L438.706 51.2148C437.881 51.1355 437.148 51.7397 437.069 52.5643C436.99 53.3889 437.594 54.1217 438.418 54.201L450.363 55.3495L449.215 67.2945C449.135 68.1191 449.74 68.8518 450.564 68.9311C451.389 69.0104 452.122 68.4062 452.201 67.5816L453.493 54.1436ZM395.954 102.157L452.954 55.1573L451.046 52.8427L394.046 99.8427L395.954 102.157Z" fill="#818181"/>
<path d="M682.39 191.564C682.701 190.796 682.331 189.921 681.564 189.61L669.053 184.538C668.285 184.227 667.41 184.597 667.099 185.364C666.788 186.132 667.158 187.007 667.925 187.318L679.046 191.827L674.538 202.947C674.227 203.715 674.597 204.59 675.364 204.901C676.132 205.212 677.007 204.842 677.318 204.075L682.39 191.564ZM551.584 247.381L681.584 192.381L680.416 189.619L550.416 244.619L551.584 247.381Z" fill="#818181"/>
<path d="M834.456 53.6401C834.257 52.8358 833.444 52.345 832.64 52.5438L819.534 55.7834C818.73 55.9822 818.239 56.7953 818.438 57.5995C818.637 58.4038 819.45 58.8946 820.254 58.6958L831.904 55.8161L834.783 67.4655C834.982 68.2697 835.795 68.7605 836.6 68.5617C837.404 68.3629 837.895 67.5498 837.696 66.7456L834.456 53.6401ZM767.284 165.775L834.284 54.7752L831.716 53.2249L764.716 164.225L767.284 165.775Z" fill="#818181"/>
<path d="M452.069 166.498C452.896 166.46 453.536 165.759 453.498 164.931L452.88 151.445C452.842 150.618 452.14 149.978 451.313 150.016C450.485 150.054 449.845 150.755 449.883 151.583L450.433 163.57L438.445 164.12C437.618 164.158 436.978 164.86 437.016 165.687C437.054 166.515 437.755 167.155 438.583 167.117L452.069 166.498ZM393.989 114.108L450.989 166.108L453.011 163.892L396.011 111.892L393.989 114.108Z" fill="#818181"/>
</svg>
